<svg width="1163" height="533" viewBox="0 0 1163 533" fill="none" xmlns="http://www.w3.org/2000/svg">
<path fill-rule="evenodd" clip-rule="evenodd" d="M477.961 345C446.083 430.838 363.434 492 266.5 492C141.96 492 41 391.04 41 266.5C41 141.96 141.96 41 266.5 41C374.745 41 465.177 117.269 486.988 219H528.779C506.377 94.4786 397.472 0 266.5 0C119.316 0 0 119.316 0 266.5C0 413.684 119.316 533 266.5 533C386.362 533 487.742 453.87 521.25 345H477.961Z" fill="white"/>
<path fill-rule="evenodd" clip-rule="evenodd" d="M388.441 219H431.627C410.97 146.27 344.061 93 264.71 93C185.358 93 118.449 146.27 97.792 219H140.978C160.075 169.286 208.272 134 264.71 134C321.147 134 369.344 169.286 388.441 219ZM419.477 345H371.463C347.34 377.751 308.506 399 264.71 399C220.913 399 182.079 377.751 157.956 345H109.942C138.593 401.375 197.141 440 264.71 440C332.278 440 390.826 401.375 419.477 345Z" fill="white"/>
<rect x="241" y="114" width="46" height="297" fill="white"/>
<path d="M760.1 409.8H740.4V319.3H759.9C760 321.3 760.2 323.4 760.4 326.3C761.8 325.3 762.9 324.4 764 323.7C773.9 316.9 784.4 315.9 795.2 320.8C806 325.7 813 333.9 813.2 346.2C813.5 366.8 813.3 387.5 813.3 408.2C813.3 408.7 813.1 409.1 812.8 409.9H793.3C793.3 407.8 793.3 405.9 793.3 404C793.3 387.8 793.4 371.7 793.3 355.5C793.2 343.9 786 337.3 775 338.1C766 338.8 760.2 345.5 760.1 356.1C760 372.1 760.1 388.1 760.1 404.1C760.1 405.9 760.1 407.7 760.1 410V409.8Z" fill="white"/>
<path d="M929 323.1C928.4 305.4 914.8 288.4 897.6 284C891.7 282.5 885.4 282.2 879.3 282C865.8 281.7 852.4 282 838.6 282V409.8C855.8 409.8 872.7 411.1 889.3 409.5C912.3 407.3 928.2 389.2 929 366.1C929.5 351.8 929.4 337.5 929 323.1ZM907.8 367.9C907.2 380.3 898.1 389 885.3 389.8C877 390.3 868.7 389.9 860 389.9V301.7C870 302.2 879.9 301.8 889.5 303.3C899.7 304.8 907.3 314.2 907.8 325.5C908.4 339.6 908.5 353.8 907.8 367.9Z" fill="white"/>
<path d="M697.5 353.9C705.5 350.3 711.9 345.5 716.1 338.1C730.4 312.9 714.1 283.1 685.2 282.1C668.1 281.5 650.9 282 633.7 282C633.2 282 632.8 282.3 632.3 282.5V409.6H653V356.1C659.6 356.1 665.4 356.3 671.2 356.1C674.4 356 676.1 356.8 677.6 360C684.9 375.5 692.4 390.9 700 406.3C700.8 407.8 702.5 409.9 703.9 410C711.2 410.4 718.4 410.2 726.8 410.2C716.8 391 707.2 372.7 697.5 354.1V353.9ZM683.7 337C681.9 337.1 680 337.1 678.2 337.1C670.1 337.1 661.9 337.1 653.4 337.1V301.1C664.1 301.1 674.6 300.6 685 301.2C695.9 301.9 701.4 308.4 701.2 318.8C701 329 694.1 336.3 683.7 337Z" fill="white"/>
<path d="M1151.3 346.3C1151.3 339 1151.5 331.6 1151.3 324.3C1150.6 302.1 1135.3 285 1113.3 281.4C1087.1 277.2 1062.6 294.9 1060.7 320.9C1059.5 337.8 1060.4 354.9 1060.7 371.9C1060.7 375.2 1061.7 378.5 1062.8 381.6C1070.2 402.4 1091.6 414.5 1113.9 410.7C1135.7 407 1150.5 390.1 1151.3 367.8C1151.6 360.6 1151.3 353.5 1151.3 346.3ZM1129.2 370.2C1127.4 382.1 1117.7 389.9 1105.9 389.9C1094 389.9 1083.3 382.2 1082.5 370.4C1081.3 354.2 1081.4 337.8 1082.5 321.6C1083.3 310.1 1094 302.2 1105.4 302C1116.9 301.8 1127.1 309.4 1129 320.9C1130.4 329.2 1130.4 337.8 1130.9 345.7C1130.3 354.2 1130.3 362.2 1129.2 370.1V370.2Z" fill="white"/>
<path d="M1047 405C1033.4 367.7 1019.8 330.4 1006.1 293C1002 281.8 1002 282 990 281.8C986.3 281.8 984.5 282.7 983.2 286.4C968.9 326 954.5 365.4 940.1 404.9C939.6 406.4 939.2 408 938.6 410C945.1 410 950.9 409.8 956.7 410C959.9 410.2 961 408.8 961.9 406.1C964.2 399.2 966.9 392.3 969.1 385.4C970.1 382.3 971.7 381.4 974.8 381.4C987.5 381.6 1000.1 381.6 1012.8 381.4C1016.1 381.4 1017.4 382.5 1018.4 385.6C1020.5 392.6 1022.9 399.5 1025.5 406.4C1026.1 407.9 1027.9 409.8 1029.3 409.9C1035.4 410.3 1041.6 410.1 1048.5 410.1C1047.9 407.9 1047.5 406.4 1047 405.1V405ZM977 362.4C982.5 345.9 987.9 329.8 993.6 312.9C999.3 329.8 1004.7 345.9 1010.3 362.4H977Z" fill="white"/>
<path d="M630.441 226.843V154.085H638.296V162.491H639.26C639.857 161.572 640.684 160.401 641.741 158.977C642.82 157.53 644.359 156.244 646.357 155.119C648.378 153.971 651.111 153.396 654.556 153.396C659.011 153.396 662.939 154.51 666.338 156.738C669.737 158.966 672.389 162.124 674.295 166.212C676.202 170.3 677.155 175.123 677.155 180.681C677.155 186.284 676.202 191.142 674.295 195.253C672.389 199.341 669.748 202.51 666.372 204.761C662.996 206.989 659.103 208.102 654.694 208.102C651.295 208.102 648.573 207.54 646.529 206.414C644.485 205.266 642.912 203.968 641.809 202.522C640.707 201.052 639.857 199.834 639.26 198.87H638.571V226.843H630.441ZM638.433 180.543C638.433 184.539 639.019 188.064 640.19 191.119C641.362 194.15 643.073 196.527 645.323 198.25C647.574 199.949 650.33 200.799 653.591 200.799C656.99 200.799 659.827 199.903 662.1 198.112C664.397 196.298 666.119 193.863 667.268 190.809C668.439 187.731 669.025 184.309 669.025 180.543C669.025 176.822 668.45 173.469 667.302 170.483C666.177 167.475 664.466 165.098 662.169 163.352C659.895 161.584 657.036 160.7 653.591 160.7C650.284 160.7 647.505 161.538 645.254 163.215C643.004 164.868 641.304 167.188 640.156 170.173C639.008 173.136 638.433 176.593 638.433 180.543ZM711.053 208.102C706.276 208.102 702.085 206.966 698.479 204.692C694.896 202.418 692.094 199.237 690.073 195.149C688.075 191.061 687.076 186.284 687.076 180.818C687.076 175.306 688.075 170.495 690.073 166.384C692.094 162.273 694.896 159.081 698.479 156.807C702.085 154.533 706.276 153.396 711.053 153.396C715.83 153.396 720.01 154.533 723.593 156.807C727.198 159.081 730 162.273 731.998 166.384C734.019 170.495 735.03 175.306 735.03 180.818C735.03 186.284 734.019 191.061 731.998 195.149C730 199.237 727.198 202.418 723.593 204.692C720.01 206.966 715.83 208.102 711.053 208.102ZM711.053 200.799C714.682 200.799 717.667 199.869 720.01 198.009C722.353 196.148 724.087 193.702 725.212 190.671C726.337 187.639 726.9 184.355 726.9 180.818C726.9 177.281 726.337 173.986 725.212 170.931C724.087 167.877 722.353 165.408 720.01 163.525C717.667 161.641 714.682 160.7 711.053 160.7C707.424 160.7 704.439 161.641 702.096 163.525C699.754 165.408 698.02 167.877 696.894 170.931C695.769 173.986 695.206 177.281 695.206 180.818C695.206 184.355 695.769 187.639 696.894 190.671C698.02 193.702 699.754 196.148 702.096 198.009C704.439 199.869 707.424 200.799 711.053 200.799ZM757.629 207L741.507 154.085H750.05L761.487 194.598H762.038L773.338 154.085H782.019L793.181 194.46H793.732L805.169 154.085H813.713L797.59 207H789.598L778.023 166.35H777.196L765.621 207H757.629ZM844.847 208.102C839.748 208.102 835.35 206.977 831.652 204.726C827.978 202.453 825.141 199.283 823.143 195.218C821.168 191.13 820.181 186.376 820.181 180.956C820.181 175.536 821.168 170.759 823.143 166.625C825.141 162.468 827.92 159.23 831.48 156.91C835.063 154.568 839.243 153.396 844.02 153.396C846.776 153.396 849.497 153.856 852.184 154.774C854.871 155.693 857.317 157.186 859.522 159.253C861.727 161.297 863.484 164.007 864.793 167.383C866.102 170.759 866.757 174.916 866.757 179.854V183.299H825.968V176.271H858.489C858.489 173.285 857.892 170.621 856.697 168.279C855.526 165.936 853.849 164.087 851.668 162.732C849.509 161.377 846.96 160.7 844.02 160.7C840.782 160.7 837.98 161.504 835.614 163.111C833.272 164.696 831.469 166.763 830.206 169.312C828.942 171.861 828.311 174.594 828.311 177.511V182.196C828.311 186.192 829 189.58 830.378 192.359C831.779 195.115 833.719 197.216 836.2 198.663C838.68 200.087 841.562 200.799 844.847 200.799C846.983 200.799 848.912 200.501 850.634 199.903C852.38 199.283 853.884 198.365 855.147 197.147C856.41 195.907 857.386 194.368 858.075 192.531L865.93 194.736C865.103 197.4 863.714 199.743 861.761 201.764C859.809 203.762 857.398 205.323 854.527 206.449C851.656 207.551 848.429 208.102 844.847 208.102ZM879.124 207V154.085H886.978V162.078H887.53C888.494 159.46 890.24 157.335 892.766 155.705C895.292 154.074 898.14 153.259 901.309 153.259C901.907 153.259 902.653 153.27 903.549 153.293C904.444 153.316 905.122 153.351 905.581 153.396V161.664C905.306 161.595 904.674 161.492 903.687 161.354C902.722 161.194 901.7 161.113 900.621 161.113C898.048 161.113 895.752 161.653 893.731 162.732C891.733 163.789 890.148 165.259 888.977 167.142C887.828 169.002 887.254 171.127 887.254 173.515V207H879.124ZM935.794 208.102C930.695 208.102 926.297 206.977 922.599 204.726C918.925 202.453 916.088 199.283 914.09 195.218C912.115 191.13 911.128 186.376 911.128 180.956C911.128 175.536 912.115 170.759 914.09 166.625C916.088 162.468 918.867 159.23 922.427 156.91C926.01 154.568 930.19 153.396 934.967 153.396C937.723 153.396 940.444 153.856 943.131 154.774C945.818 155.693 948.264 157.186 950.469 159.253C952.674 161.297 954.431 164.007 955.74 167.383C957.049 170.759 957.703 174.916 957.703 179.854V183.299H916.915V176.271H949.436C949.436 173.285 948.838 170.621 947.644 168.279C946.473 165.936 944.796 164.087 942.615 162.732C940.456 161.377 937.906 160.7 934.967 160.7C931.728 160.7 928.927 161.504 926.561 163.111C924.218 164.696 922.416 166.763 921.152 169.312C919.889 171.861 919.258 174.594 919.258 177.511V182.196C919.258 186.192 919.947 189.58 921.325 192.359C922.726 195.115 924.666 197.216 927.147 198.663C929.627 200.087 932.509 200.799 935.794 200.799C937.929 200.799 939.859 200.501 941.581 199.903C943.327 199.283 944.831 198.365 946.094 197.147C947.357 195.907 948.333 194.368 949.022 192.531L956.877 194.736C956.05 197.4 954.66 199.743 952.708 201.764C950.756 203.762 948.345 205.323 945.474 206.449C942.603 207.551 939.376 208.102 935.794 208.102ZM990.052 208.102C985.642 208.102 981.749 206.989 978.373 204.761C974.997 202.51 972.356 199.341 970.45 195.253C968.544 191.142 967.59 186.284 967.59 180.681C967.59 175.123 968.544 170.3 970.45 166.212C972.356 162.124 975.009 158.966 978.408 156.738C981.807 154.51 985.734 153.396 990.189 153.396C993.634 153.396 996.356 153.971 998.354 155.119C1000.38 156.244 1001.91 157.53 1002.97 158.977C1004.05 160.401 1004.89 161.572 1005.49 162.491H1006.17V136.447H1014.3V207H1006.45V198.87H1005.49C1004.89 199.834 1004.04 201.052 1002.94 202.522C1001.83 203.968 1000.26 205.266 998.216 206.414C996.172 207.54 993.451 208.102 990.052 208.102ZM991.154 200.799C994.415 200.799 997.171 199.949 999.422 198.25C1001.67 196.527 1003.38 194.15 1004.55 191.119C1005.73 188.064 1006.31 184.539 1006.31 180.543C1006.31 176.593 1005.74 173.136 1004.59 170.173C1003.44 167.188 1001.74 164.868 999.491 163.215C997.24 161.538 994.461 160.7 991.154 160.7C987.709 160.7 984.838 161.584 982.542 163.352C980.268 165.098 978.557 167.475 977.409 170.483C976.283 173.469 975.721 176.822 975.721 180.543C975.721 184.309 976.295 187.731 977.443 190.809C978.614 193.863 980.337 196.298 982.611 198.112C984.907 199.903 987.755 200.799 991.154 200.799ZM1058.71 207V136.447H1066.84V162.491H1067.53C1068.13 161.572 1068.95 160.401 1070.01 158.977C1071.09 157.53 1072.63 156.244 1074.63 155.119C1076.65 153.971 1079.38 153.396 1082.82 153.396C1087.28 153.396 1091.21 154.51 1094.61 156.738C1098.01 158.966 1100.66 162.124 1102.56 166.212C1104.47 170.3 1105.42 175.123 1105.42 180.681C1105.42 186.284 1104.47 191.142 1102.56 195.253C1100.66 199.341 1098.02 202.51 1094.64 204.761C1091.26 206.989 1087.37 208.102 1082.96 208.102C1079.56 208.102 1076.84 207.54 1074.8 206.414C1072.75 205.266 1071.18 203.968 1070.08 202.522C1068.98 201.052 1068.13 199.834 1067.53 198.87H1066.56V207H1058.71ZM1066.7 180.543C1066.7 184.539 1067.29 188.064 1068.46 191.119C1069.63 194.15 1071.34 196.527 1073.59 198.25C1075.84 199.949 1078.6 200.799 1081.86 200.799C1085.26 200.799 1088.1 199.903 1090.37 198.112C1092.67 196.298 1094.39 193.863 1095.54 190.809C1096.71 187.731 1097.29 184.309 1097.29 180.543C1097.29 176.822 1096.72 173.469 1095.57 170.483C1094.45 167.475 1092.73 165.098 1090.44 163.352C1088.16 161.584 1085.3 160.7 1081.86 160.7C1078.55 160.7 1075.77 161.538 1073.52 163.215C1071.27 164.868 1069.57 167.188 1068.42 170.173C1067.28 173.136 1066.7 176.593 1066.7 180.543ZM1121.2 226.843C1119.82 226.843 1118.59 226.728 1117.52 226.498C1116.44 226.292 1115.69 226.085 1115.28 225.878L1117.34 218.713C1119.32 219.218 1121.06 219.402 1122.58 219.264C1124.09 219.126 1125.44 218.449 1126.61 217.232C1127.8 216.037 1128.89 214.097 1129.88 211.41L1131.4 207.276L1111.83 154.085H1120.65L1135.26 196.252H1135.81L1150.41 154.085H1159.23L1136.77 214.717C1135.76 217.45 1134.51 219.712 1133.02 221.503C1131.52 223.318 1129.79 224.661 1127.82 225.534C1125.86 226.407 1123.66 226.843 1121.2 226.843Z" fill="white"/>
</svg>
